<?xml version="1.0" encoding="UTF-8"?>
<svg width="28px" height="28px" viewBox="0 0 28 28" version="1.1" xmlns="http://www.w3.org/2000/svg" xmlns:xlink="http://www.w3.org/1999/xlink">
    <title>9EA182A1-3948-4AFA-93E7-46B5AE4B4304</title>
    <defs>
        <path d="M13.9866667,0.666666667 C6.62666667,0.666666667 0.666666667,6.64 0.666666667,14 C0.666666667,21.36 6.62666667,27.3333333 13.9866667,27.3333333 C21.36,27.3333333 27.3333333,21.36 27.3333333,14 C27.3333333,6.64 21.36,0.666666667 13.9866667,0.666666667 L13.9866667,0.666666667 Z M14,3.33333333 C19.8933333,3.33333333 24.6666667,8.10666667 24.6666667,14 C24.6666667,19.8933333 19.8933333,24.6666667 14,24.6666667 C8.10666667,24.6666667 3.33333333,19.8933333 3.33333333,14 C3.33333333,8.10666667 8.10666667,3.33333333 14,3.33333333 Z M14.6666667,7.33333333 L12.6666667,7.33333333 L12.6666667,15.3333333 L19.6666667,19.5333333 L20.6666667,17.8933333 L14.6666667,14.3333333 L14.6666667,7.33333333 Z" id="path-1"></path>
    </defs>
    <g id="v.10-landing-TAB優化" stroke="none" stroke-width="1" fill="none" fill-rule="evenodd">
        <g id="找打掃landingWEB" transform="translate(-218.000000, -1211.000000)">
            <g id="Group-6" transform="translate(182.000000, 839.000000)">
                <g id="ic_access_time-copy" transform="translate(36.000000, 372.000000)">
                    <g>
                        <mask id="mask-2" fill="white">
                            <use xlink:href="#path-1"></use>
                        </mask>
                        <use id="Mask" fill="#3E4459" xlink:href="#path-1"></use>
                    </g>
                </g>
            </g>
        </g>
    </g>
</svg>