<svg width="16" height="16" viewBox="0 0 16 16" fill="none" xmlns="http://www.w3.org/2000/svg">
<path fill-rule="evenodd" clip-rule="evenodd" d="M16 9.36429V6.63571C16 6.16071 15.6179 5.77857 15.1429 5.77857H10.2214V0.857143C10.2214 0.382143 9.83929 0 9.36429 0H6.63571C6.16071 0 5.77857 0.382143 5.77857 0.857143V5.77857H0.857143C0.382143 5.77857 0 6.16071 0 6.63571V9.36429C0 9.83929 0.382143 10.2214 0.857143 10.2214H5.77857V15.1429C5.77857 15.6179 6.16071 16 6.63571 16H9.36429C9.83929 16 10.2214 15.6179 10.2214 15.1429V10.2214H15.1429C15.6179 10.2214 16 9.83929 16 9.36429Z" fill="#9B9B9B"/>
<mask id="mask0" mask-type="alpha" maskUnits="userSpaceOnUse" x="0" y="0" width="16" height="16">
<path fill-rule="evenodd" clip-rule="evenodd" d="M16 9.36429V6.63571C16 6.16071 15.6179 5.77857 15.1429 5.77857H10.2214V0.857143C10.2214 0.382143 9.83929 0 9.36429 0H6.63571C6.16071 0 5.77857 0.382143 5.77857 0.857143V5.77857H0.857143C0.382143 5.77857 0 6.16071 0 6.63571V9.36429C0 9.83929 0.382143 10.2214 0.857143 10.2214H5.77857V15.1429C5.77857 15.6179 6.16071 16 6.63571 16H9.36429C9.83929 16 10.2214 15.6179 10.2214 15.1429V10.2214H15.1429C15.6179 10.2214 16 9.83929 16 9.36429Z" fill="white"/>
</mask>
<g mask="url(#mask0)">
</g>
</svg>
